<svg height="511pt" viewBox="-46 0 511 511.998" width="511pt" xmlns="http://www.w3.org/2000/svg"><path d="M87.824 388.906v53.649c0 10.593 8.59 19.183 19.184 19.183s19.183-8.59 19.183-19.183v-133.66l46.18 31.468v64.602c0 10.594 8.59 19.18 19.184 19.18s19.18-8.586 19.18-19.18v-38.457l97.902 66.71v49.329c0 10.598 8.59 19.183 19.183 19.183S347 493.14 347 482.547v-23.184l62.637 42.676V78.43c-145.477 0-273.82 73.337-350.094 185.051l28.281 19.27v26.148" fill="#ffe192"/><path d="M409.637 78.43V30.074c0-11.414-9.516-20.539-20.922-20.054a493.604 493.604 0 00-209.41 56.585A492.886 492.886 0 0014.504 207.441c-6.844 9.153-4.668 22.168 4.777 28.602l40.266 27.437c76.27-111.714 204.613-185.05 350.09-185.05zm0 0" fill="#ff6e37"/><g fill="#ff5a5a"><path d="M226.543 227.59c-9.684-22.508-35.777-32.903-58.285-23.219-22.508 9.684-32.903 35.777-23.219 58.285 9.68 22.508 35.777 32.903 58.285 23.219 22.508-9.68 32.903-35.777 23.219-58.285zm0 0M374.676 248.086c-9.68-22.508-35.778-32.902-58.285-23.219-22.508 9.684-32.903 35.778-23.22 58.285 9.684 22.508 35.778 32.907 58.286 23.223 22.508-9.684 32.902-35.781 23.219-58.29zm0 0M399.758 350.613c-22.504 9.684-32.903 35.778-23.219 58.285 6.137 14.266 18.867 23.657 33.098 26.16v-87.39a44.393 44.393 0 00-9.88 2.945zm0 0M318.578 375.508c-9.683-22.504-35.777-32.903-58.285-23.219-13.398 5.766-22.5 17.344-25.637 30.516l68.492 46.672c16.985-11.778 23.914-34.25 15.43-53.97zm0 0M339.918 84.152a420.662 420.662 0 00-69.61 17.739c-4.18 10.535-4.351 22.664.485 33.894 9.684 22.508 35.777 32.906 58.285 23.223 22.508-9.684 32.902-35.781 23.219-58.29a44.164 44.164 0 00-12.379-16.566zm0 0"/></g><path d="M410.371 8.363C404.398 2.637 396.56-.32 388.293.027c-74.152 3.149-148.035 23.11-213.656 57.735-65.61 34.617-123.754 84.304-168.145 143.691-4.957 6.629-6.937 14.781-5.574 22.95 1.367 8.171 5.887 15.242 12.73 19.906l40.266 27.437.004.004 23.906 16.29v20.862c0 5.524 4.477 10 10 10 5.524 0 10-4.476 10-10v-26.148c0-3.309-1.636-6.402-4.367-8.266L73.559 260.93c8.82-12.278 18.312-24.043 28.402-35.301 10.371-11.574 21.418-22.598 33.078-32.883 11.223-9.898 22.91-19.25 35.113-27.918 12.68-9.004 25.868-17.238 39.453-24.805 13.61-7.585 27.727-14.328 42.133-20.265a509.034 509.034 0 015.434-2.2 54.232 54.232 0 004.433 22.18c5.739 13.34 16.329 23.649 29.82 29.02 6.513 2.597 13.325 3.89 20.13 3.89 7.293 0 14.578-1.488 21.476-4.453 13.34-5.742 23.645-16.332 29.02-29.82 5.375-13.492 5.172-28.266-.567-41.605a54.763 54.763 0 00-2.586-5.211 413.076 413.076 0 0140.739-2.996v251.406c-16.239 5.57-29.008 18.683-34.196 35.05-5.742 18.122-1.347 38.422 11.317 52.583 6.176 6.906 14.117 12.152 22.879 15.152v40.371l-47-32.027a10.005 10.005 0 00-10.309-.578 10.01 10.01 0 00-5.324 8.843v23.184c0 5.066-4.121 9.183-9.184 9.183s-9.183-4.12-9.183-9.183v-49.328c0-1.227-.227-2.422-.645-3.535 14.082-15.48 18.32-38.262 9.774-58.125-11.844-27.536-43.887-40.301-71.426-28.454-11.387 4.899-20.672 13.602-26.438 24.36l-13.535-9.223a10.006 10.006 0 00-10.304-.578 10.005 10.005 0 00-5.329 8.84v38.46c0 5.063-4.117 9.18-9.18 9.18s-9.183-4.12-9.183-9.18v-64.6c0-3.31-1.637-6.403-4.367-8.266l-46.184-31.465a9.997 9.997 0 00-15.629 8.262v133.66c0 5.066-4.12 9.183-9.183 9.183s-9.18-4.12-9.18-9.183v-53.649c0-5.523-4.48-10-10.004-10-5.523 0-10 4.477-10 10v53.649c0 16.093 13.094 29.183 29.184 29.183 16.09 0 29.183-13.09 29.183-29.183V327.813l26.18 17.835v59.317c0 16.09 13.09 29.18 29.184 29.18 16.09 0 29.183-13.09 29.183-29.18v-19.543l8.282 5.644c.003 0 .003.004.007.004l68.493 46.672 1.117.762v44.043c0 16.09 13.09 29.183 29.183 29.183 16.09 0 29.184-13.093 29.184-29.183v-4.274l47.004 32.032c6.523 4.445 15.633-.407 15.633-8.266V30.08c-.004-8.278-3.293-15.99-9.27-21.716zM246.54 378.801c3.492-7.738 9.703-13.883 17.703-17.324 17.41-7.489 37.66.578 45.153 17.984 5.539 12.883 2.585 27.707-6.872 37.488l-37-25.21zM20.65 221.113a9.996 9.996 0 011.863-7.687c42.625-57.024 98.457-104.735 161.457-137.977 63.02-33.25 133.96-52.418 205.168-55.437a9.975 9.975 0 017.395 2.79c2 1.92 3.1 4.503 3.1 7.272v38.469a434.086 434.086 0 00-47.808 3.754c-4.52.61-9.047 1.246-13.543 1.988a431.734 431.734 0 00-71.261 18.16c-16.348 5.692-32.34 12.54-47.915 20.082-15.804 7.649-31.144 16.395-45.843 25.996a449.214 449.214 0 00-41.617 30.747c-13.391 11.144-26.024 23.171-37.993 35.824-11.75 12.426-22.687 25.64-32.859 39.379a438.01 438.01 0 00-3.781 5.18L24.91 227.776a9.98 9.98 0 01-4.262-6.664zm322.82-90.144c-3.399 8.527-9.91 15.222-18.344 18.851-8.434 3.625-17.77 3.754-26.297.356-8.527-3.395-15.223-9.91-18.851-18.344-3.02-7.023-3.61-14.68-1.758-21.969 15.004-5.031 30.316-9.261 45.812-12.48a471.893 471.893 0 0112.727-2.48 33.828 33.828 0 016.351 9.769c3.63 8.433 3.754 17.77.36 26.297zm42.258 273.976c-3.63-8.43-3.754-17.77-.36-26.297 2.828-7.097 7.817-12.921 14.27-16.77v58.974a34.273 34.273 0 01-13.91-15.907zm0 0"/><path d="M165.672 295.625c6.512 2.594 13.324 3.887 20.129 3.887 7.293 0 14.578-1.485 21.476-4.453 27.536-11.848 40.301-43.891 28.453-71.426-5.738-13.34-16.328-23.649-29.82-29.02-13.488-5.375-28.265-5.175-41.605.567-13.34 5.738-23.645 16.328-29.02 29.82-5.375 13.488-5.172 28.266.567 41.605 5.738 13.34 16.328 23.645 29.82 29.02zm-11.805-63.223c3.395-8.527 9.91-15.222 18.344-18.851a34.308 34.308 0 0113.574-2.817c4.3 0 8.606.82 12.723 2.461 8.527 3.395 15.222 9.91 18.851 18.34 7.489 17.406-.582 37.66-17.988 45.149-8.43 3.628-17.77 3.753-26.297.359-8.527-3.398-15.222-9.914-18.847-18.344-3.63-8.433-3.758-17.773-.36-26.297zm0 0M313.805 316.117c6.511 2.598 13.324 3.89 20.129 3.89 7.293 0 14.578-1.487 21.476-4.456 13.34-5.738 23.645-16.328 29.02-29.817 5.375-13.492 5.175-28.265-.567-41.609-5.738-13.336-16.328-23.645-29.816-29.02-13.492-5.375-28.27-5.171-41.606.567-13.34 5.738-23.648 16.328-29.023 29.82-5.371 13.492-5.172 28.266.566 41.606s16.329 23.648 29.82 29.02zM302 252.895c3.395-8.528 9.91-15.22 18.344-18.848a34.308 34.308 0 0113.574-2.817c4.3 0 8.605.817 12.723 2.458 8.527 3.398 15.222 9.914 18.851 18.343 3.625 8.434 3.754 17.774.356 26.301-3.399 8.523-9.91 15.219-18.344 18.848-8.43 3.625-17.77 3.754-26.297.355-8.527-3.394-15.223-9.91-18.852-18.34-3.625-8.433-3.75-17.773-.355-26.3zm0 0M87.832 358.91c4.23 0 8.082-2.777 9.453-6.765 1.375-3.997.008-8.614-3.367-11.18-3.238-2.461-7.73-2.707-11.227-.633-3.617 2.145-5.504 6.492-4.648 10.605.957 4.583 5.102 7.973 9.789 7.973zm0 0"/></svg>