    <svg xmlns="http://www.w3.org/2000/svg" viewBox="0 0 512 512"><path d="M395.252 250.176v106.777c0 10.722-8.659 19.414-19.341 19.414-3.527 0-6.823-.963-9.67-2.618v41.447c0 10.722-8.659 19.414-19.341 19.414s-19.341-8.692-19.341-19.414V308.418c0-10.722 8.659-19.414 19.341-19.414 3.527 0 6.823.963 9.67 2.618v-41.447c0-10.722 8.659-19.414 19.341-19.414s19.341 8.693 19.341 19.415z" fill="#ffc850"/><path d="M114.812 211.348c10.682 0 19.341 8.692 19.341 19.414v41.447a19.173 19.173 0 019.67-2.618c10.682 0 19.341 8.692 19.341 19.414v106.777c0 10.722-8.659 19.414-19.341 19.414s-19.341-8.692-19.341-19.414v-41.447a19.173 19.173 0 01-9.67 2.618c-10.682 0-19.341-8.692-19.341-19.414V230.762c0-10.722 8.66-19.414 19.341-19.414z" fill="#fa9e39"/><path d="M444.845 85.629a270.92 270.92 0 0114.673 15.973c10.623 12.538 12.197 30.509 4.091 44.837L263.831 499.558c-3.728 6.589-13.135 6.589-16.863 0L48.38 148.541c-8.043-14.216-6.531-32.006 3.865-44.569a270.08 270.08 0 0121.403-22.998c104.287-99.764 269.363-97.662 371.197 4.655z" fill="#ffc850"/><path d="M277.023 476.241L96.843 157.762c-13.273-23.461-10.778-52.821 6.378-73.555a445.9 445.9 0 0135.322-37.955 442.838 442.838 0 0124.297-21.591c94.869-35.905 206.034-15.363 282.005 60.968a270.92 270.92 0 0114.673 15.973c10.622 12.538 12.197 30.509 4.091 44.837L277.023 476.241z" fill="#ffdc64"/><path d="M470.686 151.175l-2.783 4.92c-3.515 6.213-12.173 6.843-16.568 1.222a300.431 300.431 0 00-3.5-4.391c-25.482-31.37-54.863-55.161-86.257-71.359-5.171 8-14.141 13.296-24.348 13.296-16.022 0-29.011-13.038-29.011-29.121 0-1.338.098-2.653.272-3.943-36.075-8.588-73.321-8.105-109.29 1.505a29.1 29.1 0 012.645 12.145c0 16.083-12.989 29.121-29.011 29.121-12.636 0-23.38-8.112-27.359-19.429-26.886 14.956-52.199 35.599-74.715 61.991a305.965 305.965 0 00-10.019 12.392c-4.359 5.684-13.078 5.067-16.607-1.17l-2.831-5.005c-8.317-14.7-6.753-33.097 3.996-46.088a279.328 279.328 0 0122.132-23.782C175.273-19.686 345.977-17.513 451.283 88.293a280.356 280.356 0 0115.173 16.517c10.984 12.965 12.612 31.549 4.23 46.365z" fill="#ef9f67"/><path d="M89.058 127.542a297.096 297.096 0 00-18.298 19.591 305.965 305.965 0 00-10.019 12.392c-4.359 5.684-13.078 5.067-16.607-1.17l-2.831-5.005c-8.317-14.7-6.753-33.097 3.996-46.088a279.28 279.28 0 0117.453-19.173c5.631 13.964 14.568 27.208 26.306 39.453z" fill="#de925f"/><path d="M163.164 155.886a151.103 151.103 0 01-42.75-41.239c-8.819-13.279-7.075-30.96 4.167-42.245 12.473-12.52 32.695-12.52 45.168 0l1.845 1.851a5.741 5.741 0 008.14 0l1.845-1.851c12.473-12.52 32.695-12.52 45.168 0 11.242 11.285 12.986 28.966 4.167 42.245a151.077 151.077 0 01-42.75 41.239l-9.405 6.021a5.738 5.738 0 01-6.189 0l-9.406-6.021zm102.264 198.019c-12.473-12.52-32.695-12.52-45.168 0l-1.845 1.851a5.741 5.741 0 01-8.14 0l-1.845-1.851c-12.473-12.52-32.695-12.52-45.168 0-11.242 11.285-12.986 28.966-4.167 42.245a151.077 151.077 0 0042.75 41.239l9.405 6.021a5.738 5.738 0 006.189 0l9.405-6.021a151.103 151.103 0 0042.75-41.239c8.82-13.279 7.076-30.96-4.166-42.245zm149.065-113.753c-12.473-12.52-32.695-12.52-45.168 0l-1.844 1.851a5.74 5.74 0 01-8.139 0l-1.845-1.851c-12.473-12.52-32.695-12.52-45.168 0-11.242 11.285-12.986 28.966-4.167 42.245a151.077 151.077 0 0042.75 41.239l9.405 6.021a5.738 5.738 0 006.189 0l9.405-6.021a151.103 151.103 0 0042.75-41.239c8.819-13.279 7.075-30.96-4.168-42.245z" fill="#ff507d"/><path d="M163.164 155.886a151.103 151.103 0 01-42.75-41.239c-8.819-13.279-7.075-30.96 4.167-42.245 9.775-9.812 24.308-11.932 36.142-6.365a45.44 45.44 0 00-6.514 5.411c-15.926 15.986-18.397 41.034-5.903 59.845a214.21 214.21 0 0026.626 31.468 5.726 5.726 0 01-2.363-.855l-9.405-6.02zm23.824 256.91c-12.493-18.811-10.022-43.859 5.903-59.845a45.44 45.44 0 016.514-5.411c-11.834-5.567-26.367-3.447-36.142 6.365-11.242 11.285-12.986 28.966-4.167 42.245a151.09 151.09 0 0042.75 41.239l9.405 6.021a5.72 5.72 0 002.363.855 214.218 214.218 0 01-26.626-31.469zm149.065-113.753c-12.493-18.811-10.022-43.859 5.903-59.845a45.44 45.44 0 016.514-5.411c-11.834-5.567-26.367-3.447-36.142 6.365-11.242 11.285-12.986 28.966-4.167 42.245a151.077 151.077 0 0042.75 41.239l9.405 6.021a5.72 5.72 0 002.363.855 214.218 214.218 0 01-26.626-31.469z" fill="#f13269"/><path d="M250.197 279.297c0 10.722-8.659 19.414-19.341 19.414s-19.341-8.692-19.341-19.414 8.659-19.414 19.341-19.414 19.341 8.692 19.341 19.414zm-77.363-77.656c-10.682 0-19.341 8.692-19.341 19.414s8.659 19.414 19.341 19.414 19.341-8.692 19.341-19.414-8.659-19.414-19.341-19.414zm183.736-58.243c-10.682 0-19.341 8.692-19.341 19.414s8.659 19.414 19.341 19.414 19.341-8.692 19.341-19.414-8.659-19.414-19.341-19.414zm-87.033 0c-16.022 0-29.011 13.038-29.011 29.121s12.989 29.121 29.011 29.121 29.011-13.038 29.011-29.121-12.988-29.121-29.011-29.121z" fill="#fa9e39"/><path d="M202.483 279.313c0 14.839 12.338 26.912 27.503 26.912s27.503-12.073 27.503-26.912-12.338-26.912-27.503-26.912-27.503 12.072-27.503 26.912zm40.004 0c0 6.569-5.608 11.913-12.501 11.913s-12.501-5.344-12.501-11.913 5.608-11.913 12.501-11.913 12.501 5.344 12.501 11.913zm-72.507-85.151c-15.165 0-27.503 12.073-27.503 26.912s12.338 26.912 27.503 26.912 27.503-12.073 27.503-26.912c-.001-14.839-12.339-26.912-27.503-26.912zm0 38.826c-6.893 0-12.501-5.344-12.501-11.913s5.608-11.913 12.501-11.913 12.501 5.344 12.501 11.913c0 6.568-5.608 11.913-12.501 11.913zm190.018-43.239c15.165 0 27.503-12.073 27.503-26.912s-12.338-26.912-27.503-26.912-27.503 12.073-27.503 26.912 12.338 26.912 27.503 26.912zm0-38.826c6.893 0 12.501 5.344 12.501 11.913s-5.608 11.913-12.501 11.913-12.501-5.344-12.501-11.913 5.608-11.913 12.501-11.913zm-52.505 21.62c0-20.191-16.824-36.619-37.504-36.619s-37.504 16.427-37.504 36.619 16.824 36.619 37.504 36.619c20.68-.001 37.504-16.428 37.504-36.619zm-60.006 0c0-11.921 10.095-21.62 22.502-21.62s22.502 9.699 22.502 21.62c0 11.921-10.095 21.62-22.502 21.62-12.407-.001-22.502-9.699-22.502-21.62zm231.794-72.648a291.067 291.067 0 00-69.803-58.141 7.5 7.5 0 00-7.682 12.883 276.116 276.116 0 0166.201 55.143c9.169 10.463 10.593 25.587 3.543 37.633l-2.879 4.92c-.63 1.076-1.692 1.309-2.268 1.353-.487.036-1.697.006-2.561-1.061a318.12 318.12 0 00-3.707-4.498c-26.433-31.464-57.253-56.106-91.6-73.241a7.5 7.5 0 00-9.585 2.543c-4.17 6.238-11.252 9.963-18.944 9.963-12.407 0-22.502-9.699-22.502-21.62 0-.932.07-1.91.21-2.909a7.5 7.5 0 00-5.747-8.343c-22.598-5.201-45.724-7.187-68.739-5.903-4.136.231-7.301 3.77-7.071 7.906s3.777 7.298 7.907 7.07a230.16 230.16 0 0158.497 4.238c1.098 19.237 17.473 34.56 37.445 34.56 10.39 0 20.133-4.152 27.146-11.353 30.375 16.064 57.768 38.492 81.497 66.737a304.702 304.702 0 013.53 4.282c.136.168.292.315.433.477l-37.984 64.915c-15.134-7.329-34.051-4.89-46.654 7.341l-.892.866-.892-.866c-15.758-15.293-41.4-15.295-57.161 0-14.219 13.799-16.434 35.613-5.269 51.869l.085.121c12.423 17.345 28.021 31.895 46.361 43.247l9.727 6.021c2.171 1.344 4.661 2.016 7.149 2.016s4.977-.672 7.147-2.016l9.727-6.021c2.924-1.81 5.771-3.71 8.554-5.681v32.619c0 6.569-5.608 11.913-12.501 11.913-2.242 0-4.371-.557-6.325-1.656a7.5 7.5 0 00-11.177 6.536v41.444c0 6.569-5.608 11.913-12.501 11.913s-12.501-5.344-12.501-11.913v-26.247l13.373-22.855a7.498 7.498 0 00-2.687-10.26 7.503 7.503 0 00-10.262 2.686l-80.307 137.246c-.626 1.069-1.675 1.229-2.244 1.229-.57 0-1.62-.16-2.246-1.229l-28.542-48.779 5.205-3.222c18.341-11.351 33.939-25.902 46.362-43.247l.085-.121c11.165-16.255 8.949-38.069-5.269-51.868-15.759-15.294-41.4-15.294-57.162 0l-.892.866-.892-.866c-15.759-15.294-41.401-15.293-57.161 0-14.218 13.799-16.434 35.613-5.269 51.868l.085.121c.337.47.685.93 1.026 1.396-2.238 3.56-6.273 5.782-10.723 5.782-6.893 0-12.501-5.344-12.501-11.913v-41.444a7.498 7.498 0 00-11.177-6.536 12.752 12.752 0 01-6.325 1.656c-6.893 0-12.501-5.344-12.501-11.913v-78.084l40.158 68.631a7.498 7.498 0 0010.262 2.687 7.498 7.498 0 002.687-10.26l-91.13-155.743c.163-.189.327-.377.482-.574a301.92 301.92 0 0110.108-12.09c11.719-13.281 24.439-25.316 37.874-35.858.521.9 1.072 1.788 1.67 2.658l.085.121c12.423 17.345 28.021 31.895 46.361 43.247l9.727 6.021a13.585 13.585 0 007.148 2.016c2.489 0 4.978-.672 7.15-2.016l9.726-6.021c18.341-11.351 33.939-25.902 46.362-43.247l.085-.121c11.165-16.255 8.949-38.069-5.269-51.869-15.759-15.294-41.4-15.294-57.162 0l-.892.866-.892-.866c-15.76-15.294-41.402-15.293-57.161 0-9.465 9.186-13.603 21.923-12.024 34.208-15.697 11.852-30.512 25.608-44.038 40.938a316.27 316.27 0 00-10.613 12.693c-.842 1.061-2.047 1.098-2.531 1.062-.584-.041-1.658-.273-2.294-1.36l-2.928-5.005c-6.964-11.9-5.614-26.939 3.359-37.422a276.891 276.891 0 0122.281-23.151c82.387-76.202 202.621-95.675 306.304-49.61a7.5 7.5 0 006.092-13.707C326.036 2.405 268.099-5.257 210.912 3.546 152.42 12.547 98.81 38.294 55.879 78.003a291.737 291.737 0 00-23.493 24.41c-13.124 15.335-15.097 37.337-4.909 54.748l2.928 5.005c2.96 5.059 8.263 8.329 14.185 8.748.364.026.727.034 1.09.038l36.831 62.945c-.026.253-.039.51-.039.769v102.885c0 14.839 12.338 26.912 27.503 26.912.836 0 1.67-.038 2.5-.113v31.439c0 14.839 12.338 26.912 27.503 26.912 7.916 0 15.25-3.313 20.371-8.845 10.316 11.577 22.263 21.606 35.686 29.914l9.727 6.021a13.41 13.41 0 004.044 1.655l30.368 51.9c3.171 5.419 8.851 8.654 15.195 8.654 6.343 0 12.023-3.236 15.193-8.654l51.933-88.754v.61c0 14.839 12.338 26.912 27.503 26.912s27.503-12.073 27.503-26.912v-31.439c.83.075 1.664.113 2.5.113 15.165 0 27.503-12.073 27.503-26.912v-44.635a159.921 159.921 0 0022.807-25.55l.085-.121c10.729-15.62 9.095-36.367-3.662-50.209l39.651-67.763c.379-.005.759-.015 1.14-.043 5.879-.443 11.147-3.709 14.087-8.735l2.879-4.92c10.313-17.628 8.22-39.767-5.21-55.093zM125.302 77.812c9.997-9.702 26.266-9.703 36.263 0l1.907 1.851c5.203 5.049 13.667 5.048 18.868 0l1.906-1.851c10-9.704 26.266-9.702 36.264 0 8.936 8.674 10.356 22.356 3.39 32.559-11.256 15.698-25.391 28.874-42.016 39.162l-8.978 5.558-8.98-5.558c-16.624-10.289-30.759-23.465-42.015-39.162-6.966-10.203-5.546-23.885 3.391-32.559zm78.628 353.206c-16.624-10.289-30.759-23.465-42.015-39.162-6.966-10.202-5.546-23.885 3.39-32.558 9.997-9.702 26.266-9.704 36.263 0l1.907 1.851c5.203 5.049 13.667 5.048 18.868 0l1.906-1.851c10-9.704 26.266-9.702 36.264 0 8.936 8.674 10.356 22.356 3.39 32.559-11.256 15.698-25.391 28.874-42.016 39.162l-8.978 5.558-8.979-5.559zM418.067 278.11c-11.256 15.698-25.391 28.874-42.015 39.162l-8.98 5.558-8.979-5.558c-16.624-10.289-30.759-23.465-42.015-39.162-6.967-10.203-5.546-23.885 3.39-32.558 9.998-9.702 26.267-9.704 36.263 0l1.908 1.852c5.202 5.048 13.663 5.047 18.867 0l1.906-1.851c10-9.704 26.266-9.703 36.264 0 8.937 8.672 10.357 22.355 3.391 32.557z"/></svg>
